<svg width="211" height="32" viewBox="0 0 211 32" fill="none" xmlns="http://www.w3.org/2000/svg">
<path d="M86.6844 26.8613H21.4958L26.714 32L86.6844 26.8613Z" fill="#BF0000"/>
<path d="M27.5707 5.83947V6.61806C26.3246 5.83947 25.3121 5.37231 23.7544 5.37231C19.1593 5.37231 15.7324 9.49884 15.7324 14.6375C15.7324 19.7762 19.2372 23.9027 23.7544 23.9027C25.2342 23.9027 26.3246 23.4356 27.5707 22.657V23.4356H31.5428V5.83947H27.5707ZM23.7544 19.6983C21.4958 19.6983 19.8603 17.5183 19.8603 14.7154C19.8603 11.9125 21.4958 9.73241 23.7544 9.73241C26.0131 9.73241 27.5707 11.9125 27.5707 14.7154C27.6486 17.5183 26.0131 19.6983 23.7544 19.6983Z" fill="#BF0000"/>
<path d="M59.6588 5.83936V16.1946C59.6588 18.1411 58.3348 19.7761 56.3877 19.7761C54.4406 19.7761 53.1166 18.1411 53.1166 16.1946V5.83936H49.0667V16.1946C49.0667 20.4768 51.9483 23.9026 56.2319 23.9026C58.179 23.9026 59.6588 22.8126 59.6588 22.8126V23.4355H63.7088V5.83936H59.6588Z" fill="#BF0000"/>
<path d="M97.0429 23.5135V13.1582C97.0429 11.2118 98.3669 9.57672 100.314 9.57672C102.261 9.57672 103.585 11.2118 103.585 13.1582V23.5135H107.635V13.1582C107.635 8.87599 104.753 5.4502 100.47 5.4502C98.5227 5.4502 97.0429 6.54022 97.0429 6.54022V5.83949H92.9929V23.5135H97.0429Z" fill="#BF0000"/>
<path d="M4.20571 23.5133V16.6617H7.16529L12.3056 23.5133H17.5238L11.2931 15.2602C13.2402 13.8588 14.4864 11.6009 14.4864 9.03154C14.4864 4.82716 11.0595 1.40137 6.85376 1.40137H0V23.4354H4.20571V23.5133ZM4.20571 5.68361H6.93164C8.80085 5.68361 10.3585 7.24078 10.3585 9.1094C10.3585 10.978 8.80085 12.5352 6.93164 12.5352H4.20571V5.68361Z" fill="#BF0000"/>
<path d="M74.5345 19.3868C74.1451 19.6203 73.7557 19.8539 73.2105 19.8539C72.5874 19.8539 71.3413 19.3868 71.3413 17.6739V10.1216H74.7682V5.83932H71.3413V1.40137H67.2913V5.83932H65.1885V10.0437H67.2913V17.6739C67.2913 21.6447 70.2509 23.9804 73.2884 23.9804C74.3787 23.9804 75.9364 23.5911 77.1825 22.8904L74.5345 19.3868Z" fill="#BF0000"/>
<path d="M41.512 14.1703L48.4436 5.83942H42.836L38.0072 11.9903V0H33.8794V23.5134H38.0072V16.2725L43.9264 23.5134H49.534L41.512 14.1703Z" fill="#BF0000"/>
<path d="M83.8028 5.4502C79.1298 5.4502 75.8586 9.49886 75.8586 14.7154C75.8586 20.1655 80.0644 23.9806 84.1922 23.9806C86.295 23.9806 89.021 23.2799 91.2796 20.0098L87.7748 17.9855C85.0489 22.0341 80.4538 20.0098 79.9086 15.9611H91.4354C92.4478 9.57672 88.32 5.4502 83.8028 5.4502ZM87.3075 12.3796H80.0644C80.9211 8.25311 86.5287 8.01954 87.3075 12.3796Z" fill="#BF0000"/>
<path d="M120.408 11.1338C118.305 12.691 115.657 13.7032 114.878 14.0146L114.099 10.9781C117.215 9.96593 118.928 8.87591 119.629 8.3309L120.408 11.1338ZM124.068 13.3917H120.642V3.27007H123.523C123.679 2.88077 123.757 2.80291 124.068 1.71289H127.262C127.106 2.2579 126.872 2.72506 126.717 3.27007H130.611V13.3917H127.028V14.5596H136.686V17.2847H129.365C130.922 18.3747 133.492 19.7761 136.997 20.8662L135.362 23.747C134.115 23.2019 130.221 21.489 127.028 18.3747V24.1362H124.146V18.6083C121.109 21.4112 117.76 22.8905 115.735 23.747L114.177 20.8662C118.539 19.6204 121.109 17.9854 122.043 17.2847H114.489V14.5596H124.146V13.3917H124.068ZM116.046 2.6472C117.526 3.34793 119.084 4.36009 120.33 5.45012L118.617 7.86374C117.37 6.618 116.046 5.76155 114.489 4.98296L116.046 2.6472ZM123.368 5.52798V7.24087H127.885V5.52798H123.368ZM123.368 9.18734V10.9781H127.885V9.18734H123.368ZM132.168 8.09732C133.337 8.64233 135.517 9.88807 137.231 11.3674L135.362 14.0146C134.427 13.0024 133.103 11.9124 130.611 10.5109L132.168 8.09732ZM136.686 4.43795C135.673 5.68369 134.038 7.16301 132.869 8.09732L131 5.91727C133.337 4.04866 134.193 3.03649 134.661 2.49148L136.686 4.43795Z" fill="#BF0000"/>
<path d="M148.29 10.2773C148.368 9.57661 148.368 9.26518 148.368 8.40873V5.29437H138.866V2.49146H161.141V5.29437H151.406V8.33087C151.406 9.18732 151.406 9.4209 151.328 10.2773H160.44V13.0803H152.029C153.275 17.0511 157.169 19.5426 161.453 21.0997L159.661 24.1362C154.833 22.034 151.406 18.8418 150.004 15.2603C147.901 20.1654 143.539 22.6569 140.19 24.1362L138.399 21.0997C142.683 19.854 146.265 17.5182 147.667 13.0803H139.49V10.2773H148.29Z" fill="#BF0000"/>
<path d="M172.824 22.4234C171.266 22.7348 166.904 23.4355 163.867 23.747L163.555 20.9441C164.334 20.8662 165.191 20.7883 167.528 20.5548V14.4039H163.633V11.7567H167.528V10.1217H165.347V8.72021C164.879 9.10951 164.646 9.34308 164.101 9.73238L163.244 6.77374C165.269 5.37228 166.437 3.97082 167.528 1.79077H170.409C171.5 3.73724 172.356 4.74941 174.07 5.99515L172.434 8.40878C172.278 8.25306 172.201 8.25306 172.123 8.1752V10.1217H170.02V11.8346H173.447V14.4818H170.02V20.2433C170.565 20.1655 173.213 19.7762 173.447 19.6983L173.525 21.0998C173.758 21.0998 173.914 21.0998 174.303 21.0219V2.33578H185.207V13.3139H181.001C181.079 14.0146 181.235 14.7932 181.702 15.9611C183.104 15.0268 183.805 14.2482 184.35 13.6253L186.064 15.8832C185.674 16.2725 184.74 17.129 182.871 18.219C184.039 20.0098 185.363 21.0219 186.375 21.7226L184.584 24.292C183.26 23.3577 179.599 20.7105 178.509 13.3139H177.263V20.5548C179.054 20.2433 179.677 20.0876 180.534 19.854V22.5791C177.185 23.4355 174.303 23.8248 173.213 24.0584L172.824 22.4234ZM165.97 15.4161C166.203 16.2725 166.593 18.1411 166.671 19.4647L164.49 19.854C164.49 17.9076 163.945 16.1168 163.867 15.7275L165.97 15.4161ZM171.5 7.63019C170.176 6.38445 169.475 5.21656 168.929 4.36011C168.462 5.1387 167.995 5.99515 166.437 7.63019H171.5ZM173.135 15.4939C172.979 16.8175 172.746 17.9854 172.434 19.2312L170.643 18.8419C170.954 17.3625 171.11 16.584 171.188 15.1825L173.135 15.4939ZM177.029 4.90513V6.77374H182.325V4.90513H177.029ZM177.029 8.95379V10.9003H182.325V8.95379H177.029Z" fill="#BF0000"/>
<path d="M195.176 2.49141C194.32 4.28217 192.139 7.39652 189.101 9.26514L187.544 6.38436C188.4 5.9172 190.503 4.67146 192.45 1.47925L195.176 2.49141ZM195.877 7.70796C195.488 8.48655 194.943 9.81015 193.307 11.9902V24.1362H190.348V15.416C189.491 16.1946 189.101 16.4282 188.634 16.7396L187.699 13.3138C190.192 11.6009 192.061 9.18728 193.463 6.46222L195.877 7.70796ZM210.286 9.26514V12.1459H206.859V22.034C206.859 23.669 206.236 24.214 204.522 24.214H199.771L199.226 21.0997H203.12C203.666 21.0997 203.899 21.0218 203.899 20.399V12.1459H195.799V9.26514H210.286ZM209.429 2.72499V5.60577H196.734V2.72499H209.429Z" fill="#BF0000"/>
</svg>
